<?xml version="1.0" encoding="UTF-8"?>
<!-- Generator: visioncortex VTracer 0.6.4 -->
<svg version="1.1" xmlns="http://www.w3.org/2000/svg" width="16" height="16">
<path d="M0,0 L10,0 L10,1 L0,1 Z M-3,3 L-2,3 L-2,13 L-3,13 Z M12,3 L13,3 L13,13 L12,13 Z M0,15 L10,15 L10,16 L0,16 Z " fill="#8EEF97" transform="translate(3,0)"/>
<path d="M0,0 L4,0 L4,1 L5,1 L5,5 L4,5 L4,6 L0,6 L0,5 L-1,5 L-1,1 L0,1 Z " fill="#8EEF97" transform="translate(6,6)"/>
<path d="M0,0 L10,0 L10,1 L0,1 Z " fill="#8EEF97" transform="translate(3,15)"/>
<path d="M0,0 L1,0 L1,10 L0,10 Z " fill="#8EEF97" transform="translate(15,3)"/>
<path d="M0,0 L1,0 L1,10 L0,10 Z " fill="#8EEF97" transform="translate(0,3)"/>
<path d="M0,0 L1,0 L1,1 L0,1 Z M-1,1 L0,1 L0,2 L-1,2 Z " fill="#8EEE97" opacity="0.5294118" transform="translate(15,14)"/>
<path d="M0,0 L1,0 L1,1 L0,1 Z M1,1 L2,1 L2,2 L1,2 Z " fill="#8EEF97" opacity="0.5372549" transform="translate(0,14)"/>
<path d="M0,0 L2,0 L2,1 L3,1 L3,2 L-1,2 L-1,1 L0,1 Z " fill="#8EEF97" transform="translate(7,3)"/>
<path d="M0,0 L1,0 L1,1 L0,1 Z M1,1 L2,1 L2,2 L1,2 Z " fill="#8EEF97" opacity="0.5372549" transform="translate(14,0)"/>
<path d="M0,0 L1,0 L1,1 L0,1 Z M-1,1 L0,1 L0,2 L-1,2 Z " fill="#8DEF97" opacity="0.54509807" transform="translate(1,0)"/>
<path d="M0,0 L1,0 L1,1 L0,1 Z " fill="#8EEF97" transform="translate(3,15)"/>
<path d="M0,0 L1,0 L1,1 L0,1 Z M-1,1 L0,1 L0,2 L-1,2 Z " fill="#8DF796" opacity="0.11372549" transform="translate(14,13)"/>
<path d="M0,0 L1,0 L1,1 L0,1 Z M1,1 L2,1 L2,2 L1,2 Z " fill="#92F69B" opacity="0.10980392" transform="translate(1,13)"/>
<path d="M0,0 L1,0 L1,1 L0,1 Z M1,1 L2,1 L2,2 L1,2 Z " fill="#8EEF97" transform="translate(12,10)"/>
<path d="M0,0 L1,0 L1,1 L0,1 Z M-1,1 L0,1 L0,2 L-1,2 Z " fill="#8EEF97" transform="translate(3,10)"/>
<path d="M0,0 L2,0 L2,1 L0,1 Z " fill="#8EEF97" transform="translate(12,8)"/>
<path d="M0,0 L2,0 L2,1 L0,1 Z " fill="#8EEF97" transform="translate(2,8)"/>
<path d="M0,0 L1,0 L1,1 L0,1 Z M-1,1 L0,1 L0,2 L-1,2 Z " fill="#8EEF97" transform="translate(13,5)"/>
<path d="M0,0 L1,0 L1,1 L0,1 Z M1,1 L2,1 L2,2 L1,2 Z " fill="#8EEF97" transform="translate(2,5)"/>
<path d="M0,0 L1,0 L1,1 L0,1 Z " fill="#8EEF97" transform="translate(15,3)"/>
<path d="M0,0 L1,0 L1,1 L0,1 Z " fill="#8EEF97" transform="translate(0,3)"/>
<path d="M0,0 L1,0 L1,1 L0,1 Z M1,1 L2,1 L2,2 L1,2 Z " fill="#92F69B" opacity="0.10980392" transform="translate(13,1)"/>
<path d="M0,0 L1,0 L1,1 L0,1 Z M-1,1 L0,1 L0,2 L-1,2 Z " fill="#8EF697" opacity="0.105882354" transform="translate(2,1)"/>
<path d="M0,0 L1,0 L1,1 L0,1 Z " fill="#8EEF97" transform="translate(3,0)"/>
<path d="M0,0 L1,0 L1,1 L0,1 Z " fill="#8EEE97" opacity="0.023529412" transform="translate(15,15)"/>
<path d="M0,0 L1,0 L1,1 L0,1 Z " fill="#8DEF96" opacity="0.8980392" transform="translate(13,15)"/>
<path d="M0,0 L1,0 L1,1 L0,1 Z " fill="#8DEF96" opacity="0.8980392" transform="translate(2,15)"/>
<path d="M0,0 L1,0 L1,1 L0,1 Z " fill="#8EEF97" opacity="0.023529412" transform="translate(0,15)"/>
<path d="M0,0 L1,0 L1,1 L0,1 Z " fill="#8DEF97" opacity="0.72156864" transform="translate(14,14)"/>
<path d="M0,0 L1,0 L1,1 L0,1 Z " fill="#8EEF96" opacity="0.7137255" transform="translate(1,14)"/>
<path d="M0,0 L1,0 L1,1 L0,1 Z " fill="#8DEF96" opacity="0.8980392" transform="translate(15,13)"/>
<path d="M0,0 L1,0 L1,1 L0,1 Z " fill="#8DEF96" opacity="0.90588236" transform="translate(0,13)"/>
<path d="M0,0 L1,0 L1,1 L0,1 Z " fill="#8DEF96" opacity="0.8980392" transform="translate(15,2)"/>
<path d="M0,0 L1,0 L1,1 L0,1 Z " fill="#8DEF96" opacity="0.90588236" transform="translate(0,2)"/>
<path d="M0,0 L1,0 L1,1 L0,1 Z " fill="#8EEF96" opacity="0.7137255" transform="translate(14,1)"/>
<path d="M0,0 L1,0 L1,1 L0,1 Z " fill="#8EEE96" opacity="0.7058824" transform="translate(1,1)"/>
<path d="M0,0 L1,0 L1,1 L0,1 Z " fill="#8EEF97" opacity="0.023529412" transform="translate(15,0)"/>
<path d="M0,0 L1,0 L1,1 L0,1 Z " fill="#8DEF96" opacity="0.90588236" transform="translate(13,0)"/>
<path d="M0,0 L1,0 L1,1 L0,1 Z " fill="#8DEF96" opacity="0.90588236" transform="translate(2,0)"/>
<path d="M0,0 L1,0 L1,1 L0,1 Z " fill="#8DEF97" opacity="0.02745098" transform="translate(0,0)"/>
</svg>
