<?xml version="1.0" encoding="UTF-8"?>
<!-- Generator: visioncortex VTracer 0.6.4 -->
<svg version="1.1" xmlns="http://www.w3.org/2000/svg" width="16" height="16">
<path d="M0,0 L2,0 L2,1 L3,1 L3,2 L4,2 L4,3 L5,3 L5,4 L7,4 L7,3 L8,3 L8,2 L9,2 L9,1 L10,1 L10,0 L12,0 L12,2 L11,2 L11,3 L10,3 L10,4 L9,4 L9,5 L8,5 L8,7 L9,7 L9,8 L10,8 L10,9 L11,9 L11,10 L12,10 L12,12 L10,12 L10,11 L9,11 L9,10 L8,10 L8,9 L7,9 L7,8 L5,8 L5,9 L4,9 L4,10 L3,10 L3,11 L2,11 L2,12 L0,12 L0,10 L1,10 L1,9 L2,9 L2,8 L3,8 L3,7 L4,7 L4,5 L3,5 L3,4 L2,4 L2,3 L1,3 L1,2 L0,2 Z " fill="#FFFFFF" transform="translate(2,2)"/>
<path d="M0,0 L1,0 L1,1 L0,1 Z M1,1 L2,1 L2,2 L1,2 Z M2,2 L3,2 L3,3 L2,3 Z M3,3 L4,3 L4,4 L3,4 Z M4,4 L5,4 L5,5 L4,5 Z M7,7 L8,7 L8,8 L7,8 Z M8,8 L9,8 L9,9 L8,9 Z M9,9 L10,9 L10,10 L9,10 Z M10,10 L11,10 L11,11 L10,11 Z M11,11 L12,11 L12,12 L11,12 Z " fill="#FFFFFF" opacity="0.5058824" transform="translate(3,1)"/>
<path d="M0,0 L1,0 L1,1 L0,1 Z M-1,1 L0,1 L0,2 L-1,2 Z M-2,2 L-1,2 L-1,3 L-2,3 Z M2,2 L3,2 L3,3 L2,3 Z M-3,3 L-2,3 L-2,4 L-3,4 Z M1,3 L2,3 L2,4 L1,4 Z M-4,4 L-3,4 L-3,5 L-4,5 Z M0,4 L1,4 L1,5 L0,5 Z M-1,5 L0,5 L0,6 L-1,6 Z M-2,6 L-1,6 L-1,7 L-2,7 Z M-7,7 L-6,7 L-6,8 L-7,8 Z M-8,8 L-7,8 L-7,9 L-8,9 Z M-9,9 L-8,9 L-8,10 L-9,10 Z M-5,9 L-4,9 L-4,10 L-5,10 Z M-10,10 L-9,10 L-9,11 L-10,11 Z M-6,10 L-5,10 L-5,11 L-6,11 Z M-11,11 L-10,11 L-10,12 L-11,12 Z M-7,11 L-6,11 L-6,12 L-7,12 Z M-8,12 L-7,12 L-7,13 L-8,13 Z M-9,13 L-8,13 L-8,14 L-9,14 Z " fill="#FFFFFF" opacity="0.5019608" transform="translate(12,1)"/>
<path d="M0,0 L1,0 L1,1 L0,1 Z M1,1 L2,1 L2,2 L1,2 Z M2,2 L3,2 L3,3 L2,3 Z M3,3 L4,3 L4,4 L3,4 Z M4,4 L5,4 L5,5 L4,5 Z " fill="#FFFFFF" opacity="0.5058824" transform="translate(8,10)"/>
<path d="M0,0 L1,0 L1,1 L0,1 Z M1,1 L2,1 L2,2 L1,2 Z M2,2 L3,2 L3,3 L2,3 Z M3,3 L4,3 L4,4 L3,4 Z M4,4 L5,4 L5,5 L4,5 Z " fill="#FFFFFF" opacity="0.5058824" transform="translate(1,3)"/>
<path d="M0,0 L1,0 L1,1 L0,1 Z M-1,1 L0,1 L0,2 L-1,2 Z " fill="#FFFFFF" opacity="0.5019608" transform="translate(14,13)"/>
<path d="M0,0 L1,0 L1,1 L0,1 Z M1,1 L2,1 L2,2 L1,2 Z " fill="#FFFFFF" opacity="0.5058824" transform="translate(1,13)"/>
<path d="M0,0 L1,0 L1,1 L0,1 Z M1,1 L2,1 L2,2 L1,2 Z " fill="#FFFFFF" opacity="0.5058824" transform="translate(13,1)"/>
<path d="M0,0 L1,0 L1,1 L0,1 Z M-1,1 L0,1 L0,2 L-1,2 Z " fill="#FFFFFF" opacity="0.5019608" transform="translate(2,1)"/>
</svg>
