<?xml version="1.0" encoding="UTF-8"?>
<!-- Generator: visioncortex VTracer 0.6.4 -->
<svg version="1.1" xmlns="http://www.w3.org/2000/svg" width="16" height="16">
<path d="M0,0 L12,0 L12,1 L13,1 L13,6 L12,6 L12,9 L11,9 L11,8 L10,8 L10,6 L9,6 L9,1 L3,1 L3,5 L2,5 L2,10 L1,10 L1,9 L0,9 L0,6 L-1,6 L-1,1 L0,1 Z M2,10 L3,10 L3,11 L2,11 Z M3,11 L9,11 L9,12 L3,12 Z " fill="#EF9F4C" transform="translate(2,2)"/>
<path d="M0,0 L6,0 L6,1 L3,1 L3,5 L2,5 L2,10 L1,10 L1,9 L0,9 L0,6 L-1,6 L-1,1 L0,1 Z M2,10 L3,10 L3,11 L2,11 Z M3,11 L4,11 L4,12 L3,12 Z " fill="#EF9F4C" transform="translate(2,2)"/>
<path d="M0,0 L5,0 L5,1 L0,1 Z " fill="#EF9F4C" transform="translate(6,13)"/>
<path d="M0,0 L1,0 L1,1 L0,1 Z " fill="#EF9F4C" transform="translate(8,2)"/>
<path d="M0,0 L1,0 L1,1 L0,1 Z " fill="#EF9F4B" opacity="0.94509804" transform="translate(13,11)"/>
<path d="M0,0 L1,0 L1,1 L0,1 Z " fill="#EF9F4C" opacity="0.05882353" transform="translate(8,3)"/>
<path d="M0,0 L1,0 L1,1 L0,1 Z " fill="#EF9E4B" opacity="0.78431374" transform="translate(10,12)"/>
<path d="M0,0 L1,0 L1,1 L0,1 Z " fill="#F09F4B" opacity="0.57254905" transform="translate(6,10)"/>
<path d="M0,0 L1,0 L1,1 L0,1 Z " fill="#EF9E4C" opacity="0.9490196" transform="translate(7,14)"/>
<path d="M0,0 L1,0 L1,1 L0,1 Z M1,1 L2,1 L2,2 L1,2 Z " fill="#F1A04A" opacity="0.3372549" transform="translate(2,12)"/>
<path d="M0,0 L1,0 L1,1 L0,1 Z " fill="#F69D4E" opacity="0.101960786" transform="translate(4,9)"/>
<path d="M0,0 L1,0 L1,1 L0,1 Z " fill="#EF9E4B" opacity="0.73333335" transform="translate(9,8)"/>
<path d="M0,0 L1,0 L1,1 L0,1 Z " fill="#EF9F4B" opacity="0.80784315" transform="translate(8,5)"/>
<path d="M0,0 L1,0 L1,1 L0,1 Z " fill="#EF9F4C" opacity="0.9372549" transform="translate(7,1)"/>
<path d="M0,0 L1,0 L1,1 L0,1 Z " fill="#F29E4B" opacity="0.06666667" transform="translate(7,12)"/>
<path d="M0,0 L1,0 L1,1 L0,1 Z " fill="#EFA04B" opacity="0.30588236" transform="translate(11,9)"/>
<path d="M0,0 L1,0 L1,1 L0,1 Z " fill="#F1A049" opacity="0.13725491" transform="translate(5,6)"/>
<path d="M0,0 L1,0 L1,1 L0,1 Z " fill="#F0A04C" opacity="0.05882353" transform="translate(10,5)"/>
<path d="M0,0 L1,0 L1,1 L0,1 Z M-1,1 L0,1 L0,2 L-1,2 Z " fill="#EF9F4C" transform="translate(2,2)"/>
<path d="M0,0 L1,0 L1,1 L0,1 Z " fill="#F39E49" opacity="0.08235294" transform="translate(11,14)"/>
<path d="M0,0 L1,0 L1,1 L0,1 Z " fill="#F09E4C" opacity="0.5137255" transform="translate(5,14)"/>
<path d="M0,0 L1,0 L1,1 L0,1 Z M-1,1 L0,1 L0,2 L-1,2 Z " fill="#F0A04A" opacity="0.3254902" transform="translate(13,12)"/>
<path d="M0,0 L1,0 L1,1 L0,1 Z " fill="#F39E49" opacity="0.08235294" transform="translate(14,11)"/>
<path d="M0,0 L1,0 L1,1 L0,1 Z " fill="#EF9F4B" opacity="0.9529412" transform="translate(2,11)"/>
<path d="M0,0 L1,0 L1,1 L0,1 Z M-1,1 L0,1 L0,2 L-1,2 Z " fill="#EF9E4B" opacity="0.49411765" transform="translate(6,3)"/>
<path d="M0,0 L2,0 L2,1 L0,1 Z " fill="#EF9F4C" transform="translate(9,2)"/>
<path d="M0,0 L1,0 L1,1 L0,1 Z " fill="#EF9F4B" opacity="0.49019608" transform="translate(5,1)"/>
<path d="M0,0 L1,0 L1,1 L0,1 Z " fill="#F09F4A" opacity="0.50980395" transform="translate(10,14)"/>
<path d="M0,0 L1,0 L1,1 L0,1 Z " fill="#EF9F4B" opacity="0.8117647" transform="translate(9,14)"/>
<path d="M0,0 L1,0 L1,1 L0,1 Z " fill="#EF9E4C" opacity="0.9490196" transform="translate(8,14)"/>
<path d="M0,0 L1,0 L1,1 L0,1 Z " fill="#EF9F4B" opacity="0.8117647" transform="translate(6,14)"/>
<path d="M0,0 L1,0 L1,1 L0,1 Z " fill="#F4A245" opacity="0.08627451" transform="translate(4,14)"/>
<path d="M0,0 L1,0 L1,1 L0,1 Z " fill="#EF9F4B" opacity="0.94509804" transform="translate(11,13)"/>
<path d="M0,0 L1,0 L1,1 L0,1 Z " fill="#EF9E4C" opacity="0.9490196" transform="translate(4,13)"/>
<path d="M0,0 L1,0 L1,1 L0,1 Z " fill="#EF9F4B" opacity="0.99607843" transform="translate(12,12)"/>
<path d="M0,0 L1,0 L1,1 L0,1 Z " fill="#EF9F4B" opacity="0.47843137" transform="translate(11,12)"/>
<path d="M0,0 L1,0 L1,1 L0,1 Z " fill="#EF9F4B" opacity="0.47843137" transform="translate(9,12)"/>
<path d="M0,0 L1,0 L1,1 L0,1 Z " fill="#F79E46" opacity="0.11372549" transform="translate(8,12)"/>
<path d="M0,0 L1,0 L1,1 L0,1 Z " fill="#F29E4B" opacity="0.22745098" transform="translate(6,12)"/>
<path d="M0,0 L1,0 L1,1 L0,1 Z " fill="#EF9E4C" opacity="0.65882355" transform="translate(5,12)"/>
<path d="M0,0 L1,0 L1,1 L0,1 Z " fill="#EF9F4B" opacity="0.99607843" transform="translate(3,12)"/>
<path d="M0,0 L1,0 L1,1 L0,1 Z " fill="#EF9F4C" opacity="0.70980394" transform="translate(12,11)"/>
<path d="M0,0 L1,0 L1,1 L0,1 Z " fill="#F09F4B" opacity="0.57254905" transform="translate(4,11)"/>
<path d="M0,0 L1,0 L1,1 L0,1 Z " fill="#F4A245" opacity="0.08627451" transform="translate(1,11)"/>
<path d="M0,0 L1,0 L1,1 L0,1 Z " fill="#F09F4A" opacity="0.50980395" transform="translate(14,10)"/>
<path d="M0,0 L1,0 L1,1 L0,1 Z " fill="#EF9F4B" opacity="0.96862745" transform="translate(12,10)"/>
<path d="M0,0 L1,0 L1,1 L0,1 Z " fill="#F09F4B" opacity="0.33333334" transform="translate(11,10)"/>
<path d="M0,0 L1,0 L1,1 L0,1 Z " fill="#F0A04B" opacity="0.2" transform="translate(8,10)"/>
<path d="M0,0 L1,0 L1,1 L0,1 Z " fill="#EF9F4B" opacity="0.8745098" transform="translate(7,10)"/>
<path d="M0,0 L1,0 L1,1 L0,1 Z " fill="#F0A048" opacity="0.1254902" transform="translate(4,10)"/>
<path d="M0,0 L1,0 L1,1 L0,1 Z " fill="#F09F4B" opacity="0.52156866" transform="translate(1,10)"/>
<path d="M0,0 L1,0 L1,1 L0,1 Z " fill="#EF9F4B" opacity="0.8117647" transform="translate(14,9)"/>
<path d="M0,0 L1,0 L1,1 L0,1 Z " fill="#EF9E4B" opacity="0.007843138" transform="translate(9,9)"/>
<path d="M0,0 L1,0 L1,1 L0,1 Z " fill="#EE9F49" opacity="0.1764706" transform="translate(7,9)"/>
<path d="M0,0 L1,0 L1,1 L0,1 Z " fill="#F09F4A" opacity="0.6431373" transform="translate(6,9)"/>
<path d="M0,0 L1,0 L1,1 L0,1 Z " fill="#F09F4B" opacity="0.81960785" transform="translate(1,9)"/>
<path d="M0,0 L1,0 L1,1 L0,1 Z " fill="#EF9E4C" opacity="0.9490196" transform="translate(14,8)"/>
<path d="M0,0 L1,0 L1,1 L0,1 Z " fill="#EF9F4C" opacity="0.07058824" transform="translate(11,8)"/>
<path d="M0,0 L1,0 L1,1 L0,1 Z " fill="#F3A64C" opacity="0.078431375" transform="translate(8,8)"/>
<path d="M0,0 L1,0 L1,1 L0,1 Z " fill="#EF9E4B" opacity="0.49411765" transform="translate(4,8)"/>
<path d="M0,0 L1,0 L1,1 L0,1 Z " fill="#EF9F4B" opacity="0.95686275" transform="translate(1,8)"/>
<path d="M0,0 L1,0 L1,1 L0,1 Z " fill="#EF9F4B" opacity="0.8901961" transform="translate(10,7)"/>
<path d="M0,0 L1,0 L1,1 L0,1 Z " fill="#F09E4C" opacity="0.19607843" transform="translate(9,7)"/>
<path d="M0,0 L1,0 L1,1 L0,1 Z " fill="#F0A04C" opacity="0.2509804" transform="translate(5,7)"/>
<path d="M0,0 L1,0 L1,1 L0,1 Z " fill="#EF9E4B" opacity="0.99215686" transform="translate(4,7)"/>
<path d="M0,0 L1,0 L1,1 L0,1 Z " fill="#F1A04A" opacity="0.28235295" transform="translate(10,6)"/>
<path d="M0,0 L1,0 L1,1 L0,1 Z " fill="#EF9C4A" opacity="0.12156863" transform="translate(8,6)"/>
<path d="M0,0 L1,0 L1,1 L0,1 Z " fill="#EF9E4A" opacity="0.43137255" transform="translate(7,6)"/>
<path d="M0,0 L1,0 L1,1 L0,1 Z " fill="#EF9F4B" opacity="0.6745098" transform="translate(7,5)"/>
<path d="M0,0 L1,0 L1,1 L0,1 Z " fill="#F6A14B" opacity="0.105882354" transform="translate(5,5)"/>
<path d="M0,0 L1,0 L1,1 L0,1 Z " fill="#F0A04C" opacity="0.3137255" transform="translate(10,4)"/>
<path d="M0,0 L1,0 L1,1 L0,1 Z " fill="#EF9F4B" opacity="0.93333334" transform="translate(10,3)"/>
<path d="M0,0 L1,0 L1,1 L0,1 Z " fill="#F1A04B" opacity="0.34509805" transform="translate(9,3)"/>
<path d="M0,0 L1,0 L1,1 L0,1 Z " fill="#F6A14B" opacity="0.105882354" transform="translate(7,3)"/>
<path d="M0,0 L1,0 L1,1 L0,1 Z " fill="#EF9F4C" opacity="0.9882353" transform="translate(5,3)"/>
<path d="M0,0 L1,0 L1,1 L0,1 Z " fill="#EE9F4B" opacity="0.7058824" transform="translate(14,2)"/>
<path d="M0,0 L1,0 L1,1 L0,1 Z " fill="#EF9E4B" opacity="0.7137255" transform="translate(1,2)"/>
<path d="M0,0 L1,0 L1,1 L0,1 Z " fill="#F3A64C" opacity="0.078431375" transform="translate(11,1)"/>
<path d="M0,0 L1,0 L1,1 L0,1 Z " fill="#EF9E4C" opacity="0.4862745" transform="translate(10,1)"/>
<path d="M0,0 L1,0 L1,1 L0,1 Z " fill="#EF9E4B" opacity="0.79607844" transform="translate(9,1)"/>
<path d="M0,0 L1,0 L1,1 L0,1 Z " fill="#EF9F4C" opacity="0.9372549" transform="translate(8,1)"/>
<path d="M0,0 L1,0 L1,1 L0,1 Z " fill="#EF9F4B" opacity="0.8" transform="translate(6,1)"/>
<path d="M0,0 L1,0 L1,1 L0,1 Z " fill="#F4A245" opacity="0.08627451" transform="translate(4,1)"/>
</svg>
