<?xml version="1.0" encoding="UTF-8"?>
<!-- Generator: visioncortex VTracer 0.6.4 -->
<svg version="1.1" xmlns="http://www.w3.org/2000/svg" width="16" height="16">
<path d="M0,0 L1,0 L1,1 L2,1 L2,0 L8,0 L8,1 L9,1 L9,0 L10,0 L10,10 L9,10 L9,8 L8,8 L8,10 L2,10 L2,8 L1,8 L1,10 L0,10 Z M1,2 L1,4 L2,4 L2,2 Z M3,2 L3,6 L4,6 L4,8 L7,8 L7,7 L5,7 L5,6 L6,6 L6,5 L4,5 L4,2 Z M8,2 L8,4 L9,4 L9,2 Z M1,5 L1,7 L2,7 L2,5 Z M8,5 L8,7 L9,7 L9,5 Z " fill="#EF9F4C" transform="translate(3,3)"/>
<path d="M0,0 L10,0 L10,1 L0,1 Z M-3,3 L-2,3 L-2,13 L-3,13 Z M12,3 L13,3 L13,13 L12,13 Z M0,15 L10,15 L10,16 L0,16 Z " fill="#EF9F4C" transform="translate(3,0)"/>
<path d="M0,0 L10,0 L10,1 L0,1 Z " fill="#EF9F4C" transform="translate(3,0)"/>
<path d="M0,0 L1,0 L1,10 L0,10 Z " fill="#EF9F4C" transform="translate(15,3)"/>
<path d="M0,0 L10,0 L10,1 L0,1 Z " fill="#EF9F4C" transform="translate(3,15)"/>
<path d="M0,0 L1,0 L1,1 L0,1 Z M-1,1 L0,1 L0,2 L-1,2 Z " fill="#EE9F4B" opacity="0.5294118" transform="translate(15,14)"/>
<path d="M0,0 L1,0 L1,1 L0,1 Z M1,1 L2,1 L2,2 L1,2 Z " fill="#EF9E4A" opacity="0.5372549" transform="translate(0,14)"/>
<path d="M0,0 L1,0 L1,1 L0,1 Z M1,1 L2,1 L2,2 L1,2 Z " fill="#EF9E4A" opacity="0.5372549" transform="translate(14,0)"/>
<path d="M0,0 L1,0 L1,1 L0,1 Z M-1,1 L0,1 L0,2 L-1,2 Z " fill="#EF9E4B" opacity="0.54509807" transform="translate(1,0)"/>
<path d="M0,0 L1,0 L1,1 L0,1 Z " fill="#EF9F4C" transform="translate(3,15)"/>
<path d="M0,0 L1,0 L1,1 L0,1 Z M-1,1 L0,1 L0,2 L-1,2 Z " fill="#F79E46" opacity="0.11372549" transform="translate(14,13)"/>
<path d="M0,0 L1,0 L1,1 L0,1 Z M1,1 L2,1 L2,2 L1,2 Z " fill="#F6A449" opacity="0.10980392" transform="translate(1,13)"/>
<path d="M0,0 L1,0 L1,1 L0,1 Z " fill="#EF9F4C" transform="translate(15,3)"/>
<path d="M0,0 L1,0 L1,1 L0,1 Z " fill="#EF9F4C" transform="translate(0,3)"/>
<path d="M0,0 L1,0 L1,1 L0,1 Z M1,1 L2,1 L2,2 L1,2 Z " fill="#F6A449" opacity="0.10980392" transform="translate(13,1)"/>
<path d="M0,0 L1,0 L1,1 L0,1 Z M-1,1 L0,1 L0,2 L-1,2 Z " fill="#F6A14B" opacity="0.105882354" transform="translate(2,1)"/>
<path d="M0,0 L1,0 L1,1 L0,1 Z " fill="#EF9F4C" transform="translate(3,0)"/>
<path d="M0,0 L1,0 L1,1 L0,1 Z " fill="#EE9F4B" opacity="0.023529412" transform="translate(15,15)"/>
<path d="M0,0 L1,0 L1,1 L0,1 Z " fill="#EF9E4C" opacity="0.8980392" transform="translate(13,15)"/>
<path d="M0,0 L1,0 L1,1 L0,1 Z " fill="#EF9E4C" opacity="0.8980392" transform="translate(2,15)"/>
<path d="M0,0 L1,0 L1,1 L0,1 Z " fill="#EF9E4A" opacity="0.023529412" transform="translate(0,15)"/>
<path d="M0,0 L1,0 L1,1 L0,1 Z " fill="#EF9E4B" opacity="0.72156864" transform="translate(14,14)"/>
<path d="M0,0 L1,0 L1,1 L0,1 Z " fill="#EF9E4B" opacity="0.7137255" transform="translate(1,14)"/>
<path d="M0,0 L1,0 L1,1 L0,1 Z " fill="#EF9E4C" opacity="0.8980392" transform="translate(15,13)"/>
<path d="M0,0 L1,0 L1,1 L0,1 Z " fill="#EF9F4B" opacity="0.90588236" transform="translate(0,13)"/>
<path d="M0,0 L1,0 L1,1 L0,1 Z " fill="#EF9E4C" opacity="0.8980392" transform="translate(15,2)"/>
<path d="M0,0 L1,0 L1,1 L0,1 Z " fill="#EF9F4B" opacity="0.90588236" transform="translate(0,2)"/>
<path d="M0,0 L1,0 L1,1 L0,1 Z " fill="#EF9E4B" opacity="0.7137255" transform="translate(14,1)"/>
<path d="M0,0 L1,0 L1,1 L0,1 Z " fill="#EE9F4B" opacity="0.7058824" transform="translate(1,1)"/>
<path d="M0,0 L1,0 L1,1 L0,1 Z " fill="#EF9E4A" opacity="0.023529412" transform="translate(15,0)"/>
<path d="M0,0 L1,0 L1,1 L0,1 Z " fill="#EF9F4B" opacity="0.90588236" transform="translate(13,0)"/>
<path d="M0,0 L1,0 L1,1 L0,1 Z " fill="#EF9F4B" opacity="0.90588236" transform="translate(2,0)"/>
<path d="M0,0 L1,0 L1,1 L0,1 Z " fill="#EF9E4B" opacity="0.02745098" transform="translate(0,0)"/>
</svg>
