<?xml version="1.0" encoding="UTF-8"?>
<!-- Generator: visioncortex VTracer 0.6.4 -->
<svg version="1.1" xmlns="http://www.w3.org/2000/svg" width="16" height="16">
<path d="M0,0 L12,0 L12,1 L13,1 L13,6 L12,6 L12,9 L11,9 L11,10 L10,10 L10,2 L2,2 L2,10 L1,10 L1,9 L0,9 L0,6 L-1,6 L-1,1 L0,1 Z M4,3 L8,3 L8,4 L4,4 Z M3,4 L4,4 L4,8 L3,8 Z M8,4 L9,4 L9,8 L8,8 Z M4,8 L8,8 L8,9 L4,9 Z M2,10 L10,10 L10,11 L9,11 L9,12 L3,12 L3,11 L2,11 Z " fill="#EF9F4C" transform="translate(2,2)"/>
<path d="M0,0 L1,0 L1,1 L0,1 Z M-1,1 L0,1 L0,2 L-1,2 Z " fill="#F6A14B" opacity="0.105882354" transform="translate(7,6)"/>
<path d="M0,0 L1,0 L1,1 L0,1 Z M-1,1 L0,1 L0,2 L-1,2 Z " fill="#EF9F4C" transform="translate(10,9)"/>
<path d="M0,0 L1,0 L1,3 L0,3 Z M1,3 L4,3 L4,4 L1,4 Z " fill="#EF9F4C" transform="translate(5,7)"/>
<path d="M0,0 L3,0 L3,1 L0,1 Z M3,1 L4,1 L4,4 L3,4 Z " fill="#EF9F4C" transform="translate(7,5)"/>
<path d="M0,0 L1,0 L1,1 L0,1 Z M-1,1 L0,1 L0,2 L-1,2 Z " fill="#EF9F4C" transform="translate(6,5)"/>
<path d="M0,0 L1,0 L1,1 L0,1 Z M-1,1 L0,1 L0,2 L-1,2 Z M-2,2 L-1,2 L-1,3 L-2,3 Z " fill="#EF9E4B" opacity="0.7137255" transform="translate(6,9)"/>
<path d="M0,0 L1,0 L1,1 L0,1 Z M-1,1 L0,1 L0,2 L-1,2 Z M-2,2 L-1,2 L-1,3 L-2,3 Z " fill="#EF9E4B" opacity="0.7137255" transform="translate(11,4)"/>
<path d="M0,0 L1,0 L1,1 L0,1 Z " fill="#EF9E4C" opacity="0.9490196" transform="translate(7,14)"/>
<path d="M0,0 L1,0 L1,1 L0,1 Z M1,1 L2,1 L2,2 L1,2 Z " fill="#F1A04A" opacity="0.3372549" transform="translate(2,12)"/>
<path d="M0,0 L1,0 L1,1 L0,1 Z " fill="#EF9F4C" opacity="0.9372549" transform="translate(7,1)"/>
<path d="M0,0 L1,0 L1,1 L0,1 Z M-1,1 L0,1 L0,2 L-1,2 Z " fill="#EEA24C" opacity="0.11764706" transform="translate(9,8)"/>
<path d="M0,0 L1,0 L1,1 L0,1 Z M-1,1 L0,1 L0,2 L-1,2 Z " fill="#EF9F4C" transform="translate(2,2)"/>
<path d="M0,0 L1,0 L1,1 L0,1 Z " fill="#F39E49" opacity="0.08235294" transform="translate(11,14)"/>
<path d="M0,0 L1,0 L1,1 L0,1 Z " fill="#F09E4C" opacity="0.5137255" transform="translate(5,14)"/>
<path d="M0,0 L1,0 L1,1 L0,1 Z M-1,1 L0,1 L0,2 L-1,2 Z " fill="#F0A04A" opacity="0.3254902" transform="translate(13,12)"/>
<path d="M0,0 L1,0 L1,1 L0,1 Z " fill="#F39E49" opacity="0.08235294" transform="translate(14,11)"/>
<path d="M0,0 L1,0 L1,1 L0,1 Z " fill="#EF9F4B" opacity="0.9529412" transform="translate(2,11)"/>
<path d="M0,0 L1,0 L1,1 L0,1 Z M-1,1 L0,1 L0,2 L-1,2 Z " fill="#F79E46" opacity="0.11372549" transform="translate(11,10)"/>
<path d="M0,0 L1,0 L1,1 L0,1 Z M1,1 L2,1 L2,2 L1,2 Z " fill="#F6A449" opacity="0.10980392" transform="translate(4,10)"/>
<path d="M0,0 L1,0 L1,1 L0,1 Z M1,1 L2,1 L2,2 L1,2 Z " fill="#F6A449" opacity="0.10980392" transform="translate(8,6)"/>
<path d="M0,0 L1,0 L1,1 L0,1 Z M1,1 L2,1 L2,2 L1,2 Z " fill="#F6A449" opacity="0.10980392" transform="translate(10,4)"/>
<path d="M0,0 L1,0 L1,1 L0,1 Z M-1,1 L0,1 L0,2 L-1,2 Z " fill="#F6A14B" opacity="0.105882354" transform="translate(5,4)"/>
<path d="M0,0 L1,0 L1,1 L0,1 Z " fill="#F3A64C" opacity="0.078431375" transform="translate(11,1)"/>
<path d="M0,0 L1,0 L1,1 L0,1 Z " fill="#EF9F4B" opacity="0.49019608" transform="translate(5,1)"/>
<path d="M0,0 L1,0 L1,1 L0,1 Z " fill="#F09F4A" opacity="0.50980395" transform="translate(10,14)"/>
<path d="M0,0 L1,0 L1,1 L0,1 Z " fill="#EF9F4B" opacity="0.8117647" transform="translate(9,14)"/>
<path d="M0,0 L1,0 L1,1 L0,1 Z " fill="#EF9E4C" opacity="0.9490196" transform="translate(8,14)"/>
<path d="M0,0 L1,0 L1,1 L0,1 Z " fill="#EF9F4B" opacity="0.8117647" transform="translate(6,14)"/>
<path d="M0,0 L1,0 L1,1 L0,1 Z " fill="#F4A245" opacity="0.08627451" transform="translate(4,14)"/>
<path d="M0,0 L1,0 L1,1 L0,1 Z " fill="#EF9F4B" opacity="0.94509804" transform="translate(11,13)"/>
<path d="M0,0 L1,0 L1,1 L0,1 Z " fill="#EF9E4C" opacity="0.9490196" transform="translate(4,13)"/>
<path d="M0,0 L1,0 L1,1 L0,1 Z " fill="#EF9F4B" opacity="0.99607843" transform="translate(12,12)"/>
<path d="M0,0 L1,0 L1,1 L0,1 Z " fill="#EF9F4B" opacity="0.99607843" transform="translate(3,12)"/>
<path d="M0,0 L1,0 L1,1 L0,1 Z " fill="#EF9F4B" opacity="0.94509804" transform="translate(13,11)"/>
<path d="M0,0 L1,0 L1,1 L0,1 Z " fill="#EF9E4B" opacity="0.72156864" transform="translate(11,11)"/>
<path d="M0,0 L1,0 L1,1 L0,1 Z " fill="#F4A245" opacity="0.08627451" transform="translate(1,11)"/>
<path d="M0,0 L1,0 L1,1 L0,1 Z " fill="#F09F4A" opacity="0.50980395" transform="translate(14,10)"/>
<path d="M0,0 L1,0 L1,1 L0,1 Z " fill="#EF9E4B" opacity="0.7137255" transform="translate(10,10)"/>
<path d="M0,0 L1,0 L1,1 L0,1 Z " fill="#F09F4B" opacity="0.52156866" transform="translate(1,10)"/>
<path d="M0,0 L1,0 L1,1 L0,1 Z " fill="#EF9F4B" opacity="0.8117647" transform="translate(14,9)"/>
<path d="M0,0 L1,0 L1,1 L0,1 Z " fill="#EF9F4C" opacity="0.7254902" transform="translate(9,9)"/>
<path d="M0,0 L1,0 L1,1 L0,1 Z " fill="#F79E46" opacity="0.11372549" transform="translate(7,9)"/>
<path d="M0,0 L1,0 L1,1 L0,1 Z " fill="#F09F4B" opacity="0.81960785" transform="translate(1,9)"/>
<path d="M0,0 L1,0 L1,1 L0,1 Z " fill="#EF9E4C" opacity="0.9490196" transform="translate(14,8)"/>
<path d="M0,0 L1,0 L1,1 L0,1 Z " fill="#F6A449" opacity="0.10980392" transform="translate(6,8)"/>
<path d="M0,0 L1,0 L1,1 L0,1 Z " fill="#EF9F4B" opacity="0.95686275" transform="translate(1,8)"/>
<path d="M0,0 L1,0 L1,1 L0,1 Z " fill="#EE9F4B" opacity="0.7058824" transform="translate(6,6)"/>
<path d="M0,0 L1,0 L1,1 L0,1 Z " fill="#EF9E4B" opacity="0.72156864" transform="translate(5,5)"/>
<path d="M0,0 L1,0 L1,1 L0,1 Z " fill="#EE9F4B" opacity="0.7058824" transform="translate(4,4)"/>
<path d="M0,0 L1,0 L1,1 L0,1 Z " fill="#EE9F4B" opacity="0.7058824" transform="translate(14,2)"/>
<path d="M0,0 L1,0 L1,1 L0,1 Z " fill="#EF9E4B" opacity="0.7137255" transform="translate(1,2)"/>
<path d="M0,0 L1,0 L1,1 L0,1 Z " fill="#EF9E4C" opacity="0.4862745" transform="translate(10,1)"/>
<path d="M0,0 L1,0 L1,1 L0,1 Z " fill="#EF9E4B" opacity="0.79607844" transform="translate(9,1)"/>
<path d="M0,0 L1,0 L1,1 L0,1 Z " fill="#EF9F4C" opacity="0.9372549" transform="translate(8,1)"/>
<path d="M0,0 L1,0 L1,1 L0,1 Z " fill="#EF9F4B" opacity="0.8" transform="translate(6,1)"/>
<path d="M0,0 L1,0 L1,1 L0,1 Z " fill="#F4A245" opacity="0.08627451" transform="translate(4,1)"/>
</svg>
