<?xml version="1.0" encoding="UTF-8"?>
<!-- Generator: visioncortex VTracer 0.6.4 -->
<svg version="1.1" xmlns="http://www.w3.org/2000/svg" width="16" height="16">
<path d="M0,0 L1,0 L1,1 L0,1 Z M-3,2 L2,2 L2,4 L-3,4 Z M0,5 L1,5 L1,6 L0,6 Z " fill="#EF9F4C" transform="translate(8,5)"/>
<path d="M0,0 L2,0 L2,1 L3,1 L3,11 L2,11 L2,12 L0,12 L0,10 L1,10 L1,2 L0,2 Z " fill="#EF9F4C" transform="translate(0,2)"/>
<path d="M0,0 L2,0 L2,2 L1,2 L1,10 L2,10 L2,12 L0,12 L0,11 L-1,11 L-1,1 L0,1 Z " fill="#EF9F4C" transform="translate(14,2)"/>
<path d="M0,0 L1,0 L1,1 L0,1 Z M-1,1 L0,1 L0,2 L-1,2 Z " fill="#EF9F4C" opacity="0.9882353" transform="translate(9,9)"/>
<path d="M0,0 L1,0 L1,1 L0,1 Z " fill="#F0A04C" opacity="0.02745098" transform="translate(9,4)"/>
<path d="M0,0 L1,0 L1,1 L0,1 Z M-1,1 L0,1 L0,2 L-1,2 Z " fill="#EF9F4C" transform="translate(14,2)"/>
<path d="M0,0 L1,0 L1,1 L0,1 Z " fill="#F09E4C" opacity="0.023529412" transform="translate(9,11)"/>
<path d="M0,0 L1,0 L1,1 L0,1 Z " fill="#EF9F4C" opacity="0.5411765" transform="translate(7,10)"/>
<path d="M0,0 L1,0 L1,1 L0,1 Z " fill="#EF9F4B" opacity="0.8117647" transform="translate(10,7)"/>
<path d="M0,0 L1,0 L1,2 L0,2 Z " fill="#EF9E4B" opacity="0.99215686" transform="translate(8,5)"/>
<path d="M0,0 L1,0 L1,1 L0,1 Z " fill="#F2A049" opacity="0.21960784" transform="translate(7,6)"/>
<path d="M0,0 L1,0 L1,1 L0,1 Z " fill="#EF9F4C" opacity="0.015686275" transform="translate(1,1)"/>
<path d="M0,0 L1,0 L1,1 L0,1 Z " fill="#EE9F4B" opacity="0.7058824" transform="translate(13,13)"/>
<path d="M0,0 L1,0 L1,1 L0,1 Z " fill="#F09E4B" opacity="0.7019608" transform="translate(2,13)"/>
<path d="M0,0 L1,0 L1,1 L0,1 Z " fill="#EF9E4A" opacity="0.29803923" transform="translate(8,11)"/>
<path d="M0,0 L1,0 L1,1 L0,1 Z " fill="#F09E4C" opacity="0.5254902" transform="translate(9,10)"/>
<path d="M0,0 L1,0 L1,1 L0,1 Z " fill="#EF9F4C" transform="translate(8,10)"/>
<path d="M0,0 L1,0 L1,1 L0,1 Z " fill="#F19D49" opacity="0.20392157" transform="translate(10,9)"/>
<path d="M0,0 L1,0 L1,1 L0,1 Z " fill="#EF9E4B" opacity="0.99215686" transform="translate(8,9)"/>
<path d="M0,0 L1,0 L1,1 L0,1 Z " fill="#F2A14C" opacity="0.22352941" transform="translate(7,9)"/>
<path d="M0,0 L1,0 L1,1 L0,1 Z " fill="#EF9E4C" opacity="0.8039216" transform="translate(10,8)"/>
<path d="M0,0 L1,0 L1,1 L0,1 Z " fill="#EF9F4C" transform="translate(5,7)"/>
<path d="M0,0 L1,0 L1,1 L0,1 Z " fill="#F29E4A" opacity="0.21568628" transform="translate(10,6)"/>
<path d="M0,0 L1,0 L1,1 L0,1 Z " fill="#EF9F4C" opacity="0.9882353" transform="translate(9,6)"/>
<path d="M0,0 L1,0 L1,1 L0,1 Z " fill="#EFA04B" opacity="0.53333336" transform="translate(9,5)"/>
<path d="M0,0 L1,0 L1,1 L0,1 Z " fill="#EF9F4C" transform="translate(8,5)"/>
<path d="M0,0 L1,0 L1,1 L0,1 Z " fill="#EF9F4C" opacity="0.5529412" transform="translate(7,5)"/>
<path d="M0,0 L1,0 L1,1 L0,1 Z " fill="#F0A04C" opacity="0.3137255" transform="translate(8,4)"/>
<path d="M0,0 L1,0 L1,1 L0,1 Z " fill="#EF9E4B" opacity="0.7137255" transform="translate(13,2)"/>
<path d="M0,0 L1,0 L1,1 L0,1 Z " fill="#EF9F4C" opacity="0.70980394" transform="translate(2,2)"/>
<path d="M0,0 L1,0 L1,1 L0,1 Z " fill="#EF9F4C" opacity="0.003921569" transform="translate(0,1)"/>
</svg>
